Coordinates
version=1
nRows=8
nColumns=40
inDegrees=yes

Units are S.I. units (second, meters, Newtons, ...)
Angles are in degrees.

endheader
time	pelvis_tilt	pelvis_list	pelvis_rotation	pelvis_tx	pelvis_ty	pelvis_tz	hip_flexion_r	hip_adduction_r	hip_rotation_r	knee_angle_r	knee_angle_r_beta	ankle_angle_r	subtalar_angle_r	mtp_angle_r	hip_flexion_l	hip_adduction_l	hip_rotation_l	knee_angle_l	knee_angle_l_beta	ankle_angle_l	subtalar_angle_l	mtp_angle_l	lumbar_extension	lumbar_bending	lumbar_rotation	arm_flex_r	arm_add_r	arm_rot_r	elbow_flex_r	pro_sup_r	wrist_flex_r	wrist_dev_r	arm_flex_l	arm_add_l	arm_rot_l	elbow_flex_l	pro_sup_l	wrist_flex_l	wrist_dev_l
      1.81000000	      0.91393521	     -2.31158603	      3.05850174	     -0.13095198	      0.89065181	      1.41542280	     22.39261039	      1.56000084	    -19.19380618	    -20.19127216	     -0.35240418	     -6.57640093	     -4.22957567	      0.39316914	     -9.96851055	      2.58069126	      8.13516725	    -26.44718908	     -0.46159053	      4.45993529	     -9.19047046	     -6.58431699	     -8.82926874	      6.26296125	     -6.39960425	      0.08277397	     -9.35510291	     17.10912255	     13.39339056	     89.95437384	      0.00000000	      0.00000000	     14.73870651	     11.54376929	     -5.96691305	     40.52033112	     89.95437384	      0.00000000	      0.00000000
      1.82000000	      0.84107522	     -2.53287846	      2.97929840	     -0.12050606	      0.89229676	      1.41641573	     21.93381920	      1.87672315	    -18.91981115	    -20.68123589	     -0.36095566	     -5.60940631	     -4.26407091	      0.35968041	     -9.30067052	      3.04464062	      8.23849079	    -28.46433122	     -0.49679630	      2.67007961	     -8.31018178	     -6.26833549	     -8.72313886	      6.63611593	     -6.25415310	      0.16775620	     -9.45676258	     17.25449212	     13.10681405	     89.95437384	      0.00000000	      0.00000000	     14.11638254	     11.13849656	     -5.49665666	     40.06722199	     89.95437384	      0.00000000	      0.00000000
      1.83000000	      0.72161311	     -2.81335666	      2.86882050	     -0.11000852	      0.89394007	      1.41769987	     21.35176823	      2.33199856	    -18.77127007	    -20.83041542	     -0.36355933	     -4.73808095	     -4.20049940	      0.37683181	     -8.35047433	      3.68979030	      8.64556884	    -30.79644131	     -0.53749930	      0.27234738	     -7.50988748	     -5.91752693	     -8.53266720	      7.02778040	     -6.09216746	      0.25028222	     -9.55783213	     17.42849897	     12.90640611	     89.95437384	      0.00000000	      0.00000000	     13.44373139	     10.76272751	     -5.07588184	     39.52474125	     89.95437384	      0.00000000	      0.00000000
      1.84000000	      0.43268092	     -3.49687402	      2.76699850	     -0.09950333	      0.89519811	      1.41954886	     20.74760872	      3.30342328	    -18.66147524	    -20.47701404	     -0.35739132	     -4.21798078	     -4.09414441	      0.77843964	     -6.87056017	      5.17071647	      9.78162693	    -33.64053814	     -0.58713815	     -2.72519829	     -8.54645066	     -6.03132454	     -8.12327985	      7.79798747	     -5.84025827	      0.24542648	     -9.75860948	     17.95928347	     12.85707238	     89.95437384	      0.00000000	      0.00000000	     12.70784569	     10.29419821	     -4.48450281	     38.99297149	     89.95437384	      0.00000000	      0.00000000
      1.85000000	      0.32924814	     -3.67590162	      2.50757828	     -0.08925553	      0.89683680	      1.42110556	     20.02314273	      3.68953247	    -18.58925328	    -20.34671451	     -0.35511716	     -3.48975927	     -3.75091665	      0.86047054	     -5.72970167	      5.75076461	     10.13724481	    -36.00383966	     -0.62838555	     -5.90701371	     -7.62045466	     -5.64996551	     -7.98463760	      8.05046708	     -5.49291804	      0.35382047	     -9.91947524	     18.09907007	     12.86503714	     89.95437384	      0.00000000	      0.00000000	     12.19168201	      9.98184700	     -4.46557342	     38.10634680	     89.95437384	      0.00000000	      0.00000000
      1.86000000	      0.04912525	     -3.99376307	      2.34713212	     -0.07926354	      0.89779457	      1.42297346	     19.46948090	      4.19807678	    -18.84010218	    -20.09675799	     -0.35075460	     -2.96414607	     -3.10268895	      1.15674848	     -4.06693124	      6.70452700	     10.60957766	    -38.79142657	     -0.67703812	     -8.93204898	     -6.99706709	     -5.65483170	     -7.63749465	      8.38587998	     -5.17879739	      0.36457305	    -10.09167021	     18.34241553	     13.08151086	     89.95437384	      0.00000000	      0.00000000	     11.68709732	      9.73249792	     -4.52694163	     37.22585641	     89.95437384	      0.00000000	      0.00000000
      1.87000000	     -0.14668266	     -4.09608198	      2.18368557	     -0.06944619	      0.89870727	      1.42463003	     18.86128664	      4.45951475	    -19.02806614	    -19.90167630	     -0.34734978	     -2.36257132	     -2.46456930	      1.16448391	     -2.53779304	      7.18875278	     10.54110627	    -41.20692767	     -0.71919656	    -12.01482025	     -5.13130833	     -5.28635554	     -7.41136557	      8.49167611	     -4.81040367	      0.38521140	    -10.27711555	     18.37552527	     13.37699491	     89.95437384	      0.00000000	      0.00000000	     11.26541830	      9.45738730	     -4.58978010	     36.26362466	     89.95437384	      0.00000000	      0.00000000
      1.88000000	     -0.37541934	     -4.19987225	      2.02484114	     -0.05977612	      0.89925864	      1.42623088	     18.32500158	      4.68801734	    -19.34937542	    -19.78493738	     -0.34531230	     -1.69083253	     -1.65689803	      1.08292213	     -0.86122117	      7.61936572	     10.32881304	    -43.72506893	     -0.76314642	    -13.65700913	     -3.10264687	     -5.19485548	     -7.16369710	      8.59834534	     -4.36177388	      0.39237271	    -10.49765854	     18.43431734	     13.71917906	     89.95437384	      0.00000000	      0.00000000	     10.91565245	      9.23089374	     -4.89925440	     35.26645023	     89.95437384	      0.00000000	      0.00000000
